<svg xmlns="http://www.w3.org/2000/svg" height="1200" width="1600" version="1.1" xmlns:xlink="http://www.w3.org/1999/xlink" xmlns:svgjs="http://svgjs.com/svgjs"><rect fill="none" width="1600" height="1200"></rect><g><path d="M1114.27 436.85H1427.31C1449.12 436.85 1466.73 455.83 1466.73 479.15V815C1466.73 838.4 1449.05 857.29 1427.31 857.29H1114.27C1092.46 857.29 1074.84 838.32 1074.84 815V479.23C1074.77 455.83 1092.46 436.85 1114.27 436.85Z" fill="#cecece" opacity="1" stroke-width="4" stroke="none"></path></g><g><path d="M539.15 579.86H169.21C144.16 579.86 123.91 600.11 123.91 625.16V972.73C123.91 997.79 144.16 1018.04 169.21 1018.04H539.15C564.21 1018.04 584.46 997.79 584.46 972.73V625.16C584.46 600.19 564.12 579.86 539.15 579.86Z" fill="#cecece" opacity="1" stroke-width="4" stroke="none"></path><path d="M173.12 659.16C183.41 659.16 191.74 650.83 191.74 640.54 191.74 630.25 183.41 621.91 173.12 621.91 162.84 621.91 154.49 630.25 154.49 640.54 154.49 650.83 162.84 659.16 173.12 659.16Z" fill="#ffffff" opacity="1" stroke-width="4" stroke="none"></path><path d="M227.21 659.16C237.5 659.16 245.84 650.83 245.84 640.54 245.84 630.25 237.5 621.91 227.21 621.91 216.93 621.91 208.58 630.25 208.58 640.54 208.58 650.83 216.93 659.16 227.21 659.16Z" fill="#ffffff" opacity="1" stroke-width="4" stroke="none"></path><path d="M281.38 659.16C291.67 659.16 300.01 650.83 300.01 640.54 300.01 630.25 291.67 621.91 281.38 621.91 271.1 621.91 262.76 630.25 262.76 640.54 262.76 650.83 271.1 659.16 281.38 659.16Z" fill="#ffffff" opacity="1" stroke-width="4" stroke="none"></path></g><g><path d="M405.55 399.02H250.45C241.91 399.02 234.94 392.05 234.94 383.51V274.38C234.94 265.84 241.91 258.87 250.45 258.87H292.37C297.88 258.87 302.94 261.8 305.75 266.52L310.58 274.72C313.39 279.44 318.45 282.36 323.95 282.36H405.66C414.2 282.36 421.17 289.33 421.17 297.87V383.51C421.17 392.05 414.2 399.02 405.55 399.02 405.66 399.02 405.66 399.02 405.55 399.02Z" fill="#c4a0ff" opacity="1" stroke-width="4" stroke="none"></path><path d="M539.51 169.08H445.22C445.22 169.08 434.32 224.82 467.14 254.38H561.43C528.61 224.82 539.51 169.08 539.51 169.08Z" fill="#61a5ff" opacity="1" stroke-width="4" stroke="none"></path><path d="M407.35 120.86H313.05C313.05 120.86 302.15 176.61 334.97 206.16H429.26C396.33 176.61 407.35 120.86 407.35 120.86Z" fill="#006dff" opacity="1" stroke-width="4" stroke="none"></path></g><g><path d="M965.03 1112.36C996.48 1100.12 1085.93 1041.9 1056.46 1005.47 1026.99 969.04 933.17 981.81 928.4 996.03 922.38 1014.09 990.35 1000.49 1002.49 964.27 1014.64 928.05 919.26 955.03 910.55 928.47 903.49 906.88 961.29 881.77 961.4 841.19" stroke="#1f2123" stroke-width="4" stroke-linecap="round" stroke-linejoin="round" opacity="1" fill="none"></path></g><g><path d="M1266.89 757.42C1324.46 757.42 1371.13 710.74 1371.13 653.17 1371.13 595.6 1324.46 548.93 1266.89 548.93 1209.31 548.93 1162.64 595.6 1162.64 653.17 1162.64 710.74 1209.31 757.42 1266.89 757.42Z" fill="#61a5ff" opacity="1" stroke-width="4" stroke="none"></path><path d="M1303.95 639.3L1261.47 612.56C1250.64 605.62 1236.42 613.57 1236.42 626.44V679.91C1236.42 692.77 1250.64 700.56 1261.47 693.79L1303.95 667.05C1314.1 660.62 1314.1 645.73 1303.95 639.3Z" fill="#1f2123" opacity="1" stroke-width="4" stroke="none"></path></g><g><path d="M418.69 746.26H399.7L396.15 735.2C393.44 726.85 385.72 721.21 377.16 721.21H335.63C326.86 721.21 319.35 726.85 316.64 735.2L313.09 746.26H294.1C271.97 746.26 254.23 764.21 254.23 786.12V862.92C254.23 885.05 272.18 902.79 294.1 902.79H418.9C441.02 902.79 458.76 884.84 458.76 862.92V786.12C458.55 764.21 440.6 746.26 418.69 746.26ZM358.38 852.7C341.05 852.7 327.07 838.71 327.07 821.39 327.07 804.07 341.05 790.09 358.38 790.09 375.7 790.09 389.68 804.07 389.68 821.39 389.68 838.71 375.7 852.7 358.38 852.7Z" fill="#006dff" opacity="1" stroke-width="4" stroke="none"></path></g><g><path d="M1084.42 946.17L1079.18 915.73 1098.58 940.27 1113.63 912.48 1112.21 944.23 1137.83 942.25 1113.16 959.05 1132.45 985.85 1103.91 974.62 1093.72 1006.09 1088.1 971.27 1066.11 986.98 1079.37 961.41 1055.31 944.75 1084.42 946.17Z" fill="#7c2ff9" opacity="1" stroke-width="4" stroke="none"></path><path d="M1274.09 1023.36L1238.42 997.12 1258.38 1037.46 1220.73 1057.37 1264.18 1056.67 1258.95 1082.43 1277.3 1062.75 1290.56 1098.89 1294.62 1060.3 1340.57 1077.99 1300.7 1047.14 1343.17 1023.5 1295.32 1027.55 1300.66 989.76 1274.09 1023.36Z" fill="#7c2ff9" opacity="1" stroke-width="4" stroke="none"></path></g><g><path d="M640.16 249.06C628.88 249.06 619.73 239.91 619.73 228.63 619.73 217.35 628.88 208.21 640.16 208.21 651.44 208.21 660.58 217.35 660.58 228.63 660.58 239.91 651.44 249.06 640.16 249.06Z" fill="#7c2ff9" opacity="1" stroke-width="4" stroke="none"></path><path d="M679.84 162.1C668.56 162.1 659.42 152.96 659.42 141.67 659.42 130.39 668.56 121.25 679.84 121.25 691.12 121.25 700.27 130.39 700.27 141.67 700.27 152.96 691.12 162.1 679.84 162.1Z" fill="#006dff" opacity="1" stroke-width="4" stroke="none"></path></g><g><path d="M305.51 473.98C315.13 473.98 322.91 481.77 322.91 491.38 322.91 500.99 315.13 508.78 305.51 508.78 295.9 508.78 288.11 500.99 288.11 491.38 288.11 481.77 295.9 473.98 305.51 473.98Z" fill="#7c2ff9" opacity="1" stroke-width="4" stroke="none"></path></g><g><path d="M1343.39 281.98C1353 281.98 1360.79 289.77 1360.79 299.38 1360.79 308.99 1353 316.78 1343.39 316.78 1333.78 316.78 1325.99 308.99 1325.99 299.38 1325.99 289.77 1333.78 281.98 1343.39 281.98Z" fill="#c4a0ff" opacity="1" stroke-width="4" stroke="none"></path></g><g><path d="M1163.94 225.18L1176.66 285.75 1135.76 246.32 1039.97 288.58 1106.21 219.51 1061.1 168.82 1127.34 184.28 1162.57 109.63 1158.36 185.75 1224.6 173.03 1163.94 225.18Z" stroke="#7c2ff9" stroke-width="4" stroke-linecap="round" stroke-linejoin="round" opacity="1" fill="none"></path></g><g><path d="M529.9 694.2L529.85 403.05C529.85 384.77 544.72 369.85 563.03 369.83H1036.99C1055.26 369.87 1070.14 384.78 1070.15 403.05V694.2H529.9Z" fill="#ffffff" opacity="1" stroke-width="4" stroke="none"></path><path d="M603.02 535.83C592.45 535.83 583.83 527.22 583.83 516.65V333.2C583.83 322.6 592.43 314.02 603 314.02H788.42C798.98 314.02 807.58 322.6 807.6 333.18V516.65C807.6 527.22 799 535.83 788.42 535.83H603.02ZM603.02 321.85C596.79 321.87 591.72 326.95 591.7 333.18V516.65C591.7 522.88 596.79 527.97 603.02 527.99H788.42C794.66 527.97 799.75 522.9 799.77 516.65V333.2C799.75 326.95 794.66 321.85 788.42 321.85H603.02Z" fill="#c4a0ff" opacity="1" stroke-width="4" stroke="none"></path><path d="M897.39 749.11C886.82 749.11 878.21 740.5 878.21 729.93V546.46C878.21 535.88 886.82 527.28 897.39 527.28H1081.85C1092.42 527.28 1101.02 535.88 1101.02 546.46V729.93C1101.02 740.5 1092.42 749.11 1081.85 749.11H897.39V749.11ZM897.39 535.11C891.14 535.11 886.05 540.21 886.05 546.46V729.93C886.05 736.18 891.14 741.25 897.39 741.27H1081.85C1088.1 741.25 1093.19 736.18 1093.19 729.93V546.46C1093.19 540.21 1088.1 535.11 1081.85 535.11H897.39Z" fill="#c4a0ff" opacity="1" stroke-width="4" stroke="none"></path><path d="M504.65 728.95C494.08 728.95 485.47 720.34 485.47 709.77V592.08C485.47 581.51 494.08 572.91 504.65 572.91H609.49C620.06 572.91 628.66 581.51 628.66 592.08V709.77C628.66 720.34 620.06 728.95 609.49 728.95H504.65ZM504.65 580.74C498.4 580.74 493.31 585.83 493.31 592.08V709.77C493.31 716.02 498.4 721.09 504.65 721.11H609.49C615.72 721.09 620.81 716.02 620.83 709.77V592.08C620.81 585.83 615.72 580.74 609.49 580.74H504.65V580.74Z" fill="#c4a0ff" opacity="1" stroke-width="4" stroke="none"></path><path d="M611.84 457.52L611.78 340.08 779.53 340.03 779.57 457.52H611.84Z" fill="#c4a0ff" opacity="1" stroke-width="4" stroke="none"></path><path d="M614.14 495.14C610.93 491.65 610.93 486.42 614.14 482.93 615.83 481.07 618.26 480.01 620.77 480.01 623.05 480.01 625.21 480.84 626.89 482.39L628.82 484.32 630.67 482.39C632.37 480.69 634.62 479.74 637.04 479.74 639.45 479.74 641.7 480.69 643.42 482.39 646.91 485.9 646.91 491.63 643.4 495.14L628.78 509.78 614.14 495.14Z" fill="#c4a0ff" opacity="1" stroke-width="4" stroke="none"></path><path d="M660.28 913.98C653.05 913.98 647.18 908.1 647.18 900.88 647.18 893.65 653.05 887.78 660.28 887.78H712.37L712.32 763.02C712.32 742.43 729.06 725.68 749.65 725.68H850.32C870.9 725.68 887.65 742.43 887.65 763.02V876.67C887.63 897.23 870.88 913.98 850.32 913.98H660.28V913.98Z" fill="#2c525b" opacity="1" stroke-width="4" stroke="none"></path><path d="M536.52 805.92C501.99 805.92 473.9 777.83 473.9 743.3V376.57C473.94 342.07 502.03 314.02 536.52 314.02H1063.5C1097.97 314.04 1126.06 342.09 1126.1 376.57V743.3C1126.1 777.83 1098.01 805.92 1063.48 805.92H536.52ZM563.07 369.95C544.82 369.95 529.96 384.8 529.96 403.05V694.14L1070.1 694.08 1070.15 403.05C1070.15 384.8 1055.28 369.95 1037.03 369.95H563.07V369.95Z" fill="#2c525b" opacity="1" stroke-width="4" stroke="none"></path><path d="M800.02 773.32C787.15 773.32 776.68 762.84 776.68 749.97 776.68 737.11 787.15 726.63 800.02 726.63 812.89 726.63 823.36 737.11 823.36 749.97 823.36 762.84 812.89 773.32 800.02 773.32Z" fill="#61a5ff" opacity="1" stroke-width="4" stroke="none"></path><path d="M800.02 349.44C795.89 349.44 792.51 346.06 792.51 341.94 792.51 337.79 795.89 334.43 800.02 334.43 804.15 334.43 807.52 337.79 807.52 341.94 807.52 346.06 804.15 349.44 800.02 349.44Z" fill="#000000" opacity="1" stroke-width="4" stroke="none"></path><path d="M887.59 806.08H712.03" stroke="#000000" stroke-width="4" opacity="1" fill="none"></path></g></svg>