<svg xmlns="http://www.w3.org/2000/svg" height="1200" width="1600" version="1.1" xmlns:xlink="http://www.w3.org/1999/xlink" xmlns:svgjs="http://svgjs.com/svgjs"><rect fill="none" width="1600" height="1200"></rect><g><path d="M1100.5 268.25H506.53C466.31 268.25 433.79 300.77 433.79 340.99V899.04C433.79 939.27 466.31 971.79 506.53 971.79H1100.5C1140.72 971.79 1173.24 939.27 1173.24 899.04V340.99C1173.24 300.77 1140.59 268.25 1100.5 268.25Z" fill="#ffffff" opacity="1" stroke-width="4" stroke="none"></path><path d="M513.33 397.41C529.85 397.41 543.23 384.03 543.23 367.5 543.23 350.98 529.85 337.6 513.33 337.6 496.8 337.6 483.42 350.98 483.42 367.5 483.42 384.03 496.8 397.41 513.33 397.41Z" fill="#e9eff3" opacity="1" stroke-width="4" stroke="none"></path><path d="M600.17 397.41C616.69 397.41 630.08 384.03 630.08 367.5 630.08 350.98 616.69 337.6 600.17 337.6 583.65 337.6 570.27 350.98 570.27 367.5 570.27 384.03 583.65 397.41 600.17 397.41Z" fill="#e9eff3" opacity="1" stroke-width="4" stroke="none"></path><path d="M687.15 397.41C703.67 397.41 717.06 384.03 717.06 367.5 717.06 350.98 703.67 337.6 687.15 337.6 670.63 337.6 657.25 350.98 657.25 367.5 657.25 384.03 670.63 397.41 687.15 397.41Z" fill="#e9eff3" opacity="1" stroke-width="4" stroke="none"></path></g><g><path d="M727.09 857.36L717.9 831.95 710.86 797.04C710.86 796.73 710.86 796.73 711.16 796.73L746.07 802.55 777 820.31C777.31 820.31 777.31 820.62 777 820.92L749.75 843.28 727.09 857.36Z" fill="#a0b7d5" opacity="1" stroke-width="4" stroke="none"></path><path d="M717.9 831.95L749.44 843.28 725.86 862.57C724.94 863.18 723.72 862.88 723.72 861.65L717.9 831.95Z" fill="#5a82b9" opacity="1" stroke-width="4" stroke="none"></path><path d="M711.16 796.73L777 820.31C777.31 820.31 777.31 820.31 777.31 820L880.2 533.68 813.75 509.48 710.86 796.12C710.86 796.73 710.86 796.73 711.16 796.73Z" fill="#006dff" opacity="1" stroke-width="4" stroke="none"></path><path d="M743.93 808.7L777 820.65C777.31 820.65 777.31 820.65 777.31 820.34L880.2 534.01 847.13 522.07 743.93 808.7Z" fill="#293d57" opacity="0.3" stroke-width="4" stroke="none"></path><path d="M813.75 509.82L880.2 534.01 888.16 511.35C894.9 492.67 885.41 472.46 867.03 466.03 848.35 459.29 828.14 469.09 822.02 487.46L813.75 509.82Z" fill="#afc1d9" opacity="1" stroke-width="4" stroke="none"></path><path d="M880.2 534.01L813.75 509.82" stroke="#293d57" stroke-width="4" stroke-linecap="round" stroke-linejoin="round" opacity="1" fill="none"></path></g><g><path d="M1239.17 741.61C1225.46 741.61 1216.93 738.6 1215.13 733.13 1213.11 726.91 1219.71 718.29 1233.74 708.86 1248.03 699.3 1267.72 690.14 1289.2 683.05 1313.39 675.02 1337.13 670.42 1354.35 670.42 1368.07 670.42 1376.6 673.43 1378.39 678.9 1382.56 691.53 1349.38 713.99 1304.44 728.98 1280.14 737 1256.36 741.61 1239.17 741.61Z" fill="#006dff" opacity="1" stroke-width="4" stroke="none"></path><path d="M1239.06 741.61C1225.14 741.61 1216.82 738.68 1215.02 733.13L1214.91 732.91 1378.12 678.65 1378.27 678.9C1378.96 681.06 1378.62 683.53 1377.25 686.25 1370.72 699.32 1340.68 716.9 1304.2 728.98 1280.03 737 1256.28 741.61 1239.06 741.61Z" fill="#003b89" opacity="0.2" stroke-width="4" stroke="none"></path><path d="M1377.68 678.8L1216.52 730.64" stroke="#000000" stroke-width="4" stroke-linecap="round" stroke-linejoin="round" opacity="1" fill="none"></path><path d="M1150.48 778.46C1137.17 778.46 1113.7 751.26 1095.9 715.21 1086.33 695.73 1079.55 676.23 1076.85 660.31 1074.14 644.33 1075.96 633.92 1081.94 630.98 1083 630.45 1084.23 630.19 1085.67 630.19 1098.98 630.19 1122.45 657.37 1140.24 693.44 1149.82 712.92 1156.59 732.42 1159.3 748.32 1162 764.32 1160.19 774.73 1154.21 777.66 1153.04 778.31 1151.53 778.46 1150.48 778.46Z" fill="#006dff" opacity="1" stroke-width="4" stroke="none"></path><path d="M1150.48 778.35C1136.9 778.35 1113.94 751.75 1095.9 715.1 1086.16 695.38 1079.39 675.89 1076.85 660.2 1074.14 644.22 1075.96 633.81 1081.94 630.87L1082.17 630.75 1154.44 777.4 1154.21 777.55C1153.25 778.09 1152.03 778.35 1150.48 778.35Z" fill="#003b89" opacity="0.2" stroke-width="4" stroke="none"></path><path d="M1197.7 761.1C1195.74 761.1 1193.93 760.63 1192.49 759.74 1189.98 758.3 1188.19 755.67 1187.17 751.92 1182.7 735.31 1194.15 698.46 1215.02 662.32 1238.24 622.09 1266.78 592.89 1282.9 592.89 1284.86 592.89 1286.65 593.36 1288.1 594.24 1294.96 598.24 1296.32 610.58 1291.95 629 1287.68 647.31 1278.31 669.57 1265.57 691.66 1242.35 731.89 1213.8 761.1 1197.7 761.1Z" fill="#006dff" opacity="1" stroke-width="4" stroke="none"></path><path d="M1197.78 761.1C1195.82 761.1 1194.01 760.63 1192.57 759.74L1192.35 759.63 1287.91 594.14 1288.18 594.24C1290.69 595.68 1292.48 598.31 1293.5 602.05 1297.98 618.63 1286.58 655.48 1265.76 691.66 1242.43 731.89 1213.84 761.1 1197.78 761.1Z" fill="#003b89" opacity="0.2" stroke-width="4" stroke="none"></path><path d="M1082.41 632.59L1171.44 811.67" stroke="#000000" stroke-width="4" stroke-linecap="round" stroke-linejoin="round" opacity="1" fill="none"></path><path d="M1286.39 595.4L1163.55 811.67" stroke="#000000" stroke-width="4" stroke-linecap="round" stroke-linejoin="round" opacity="1" fill="none"></path><path d="M1070.8 971.52C1061.94 959.28 1057.46 946.19 1057.46 932.6 1057.46 896.63 1088.91 865.18 1135.7 854.35L1118.77 792.64 1220.8 792.59 1204.04 854.4C1250.82 865.18 1282.26 896.63 1282.26 932.6 1282.26 946.17 1277.69 959.58 1269.06 971.39L1268.94 971.52H1070.8V971.52Z" fill="#2c465b" opacity="1" stroke-width="4" stroke="none"></path><path d="M1137.07 853.91H1161.86" stroke="#000000" stroke-width="4" stroke-linecap="round" stroke-linejoin="round" opacity="1" fill="none"></path><path d="M1233.05 971.52V971.37L1233.29 971.01C1241.91 959.21 1246.46 945.89 1246.46 932.49 1246.46 896.74 1215.13 865.45 1168.5 854.65L1168.28 854.65 1185.16 792.62 1220.8 792.59 1204.04 854.4C1250.82 865.18 1282.26 896.63 1282.26 932.6 1282.26 946.16 1277.69 959.58 1269.06 971.39L1268.94 971.52H1233.05Z" fill="#050505" opacity="0.2" stroke-width="4" stroke="none"></path><path d="M1169.75 821.62C1137.97 821.62 1119.73 794.05 1120 792.78L1120.83 792.64 1215.79 792.62 1220.44 792.63C1220.42 797.11 1201.54 821.62 1169.75 821.62Z" fill="#000000" opacity="1" stroke-width="4" stroke="none"></path></g><g><path d="M411.18 472.97L391.08 383.79C387.57 368.23 397.28 352.86 412.84 349.36 428.4 345.85 443.76 355.57 447.27 371.12L459.57 425.69C463.08 441.24 478.45 450.96 494 447.45L548.16 435.25" stroke="#1f2322" stroke-width="4" stroke-linecap="round" stroke-linejoin="round" opacity="1" fill="none"></path><path d="M462.28 567.57L405.44 580.39 419.39 642.28 476.24 629.47 462.28 567.57Z" fill="#7c2ff9" opacity="1" stroke-width="4" stroke="none"></path><path d="M433.05 614.81L428.25 615.9C426.45 616.3 424.66 615.16 424.25 613.37L422.69 606.45C422.29 604.66 423.43 602.86 425.22 602.46L430.02 601.37C431.81 600.97 433.61 602.11 434.01 603.9L435.58 610.82C435.98 612.61 434.84 614.41 433.05 614.81Z" fill="#1f2322" opacity="1" stroke-width="4" stroke="none"></path><path d="M456.83 609.45L452.03 610.53C450.24 610.94 448.44 609.8 448.04 608.01L446.48 601.09C446.07 599.3 447.21 597.5 449 597.1L453.8 596.01C455.6 595.61 457.39 596.74 457.8 598.54L459.36 605.46C459.76 607.25 458.71 609.03 456.83 609.45Z" fill="#1f2322" opacity="1" stroke-width="4" stroke="none"></path><path d="M438.47 497.97L430.57 499.75 418.93 448.12C417.71 442.74 412.32 439.33 406.95 440.55L400.84 441.92C395.47 443.13 392.06 448.52 393.27 453.9L404.91 505.53 397.01 507.32C385.69 509.87 378.54 521.06 381.11 532.47L393.21 586.14 475.71 567.54 463.62 513.87C461.06 502.55 449.79 495.42 438.47 497.97Z" fill="#006dff" opacity="1" stroke-width="4" stroke="none"></path><path d="M428.11 488.84L400.06 484.03 404.91 505.53 430.57 499.75 428.11 488.84Z" fill="#090d12" opacity="0.3" stroke-width="4" stroke="none"></path><path d="M404.91 505.53L430.57 499.75" stroke="#090d12" stroke-width="4" stroke-linecap="round" stroke-linejoin="round" opacity="1" fill="none"></path><path d="M406.08 583.24L462.93 570.42" stroke="#090d12" stroke-width="4" stroke-linecap="round" stroke-linejoin="round" opacity="1" fill="none"></path></g><g><path d="M500.1 840.63C453.95 811.02 380.15 779.53 351.62 830.7 323.08 881.86 375.43 1045.7 434.27 1037.34 489.38 1029.46 404.75 890.72 314.22 878.91 223.7 867.1 224.68 999.94 266.01 987.15 292.77 978.89 276.24 908.24 182.47 910.89" stroke="#1f2322" stroke-width="4" stroke-linecap="round" stroke-linejoin="round" opacity="1" fill="none"></path></g><g><path d="M1085.6 364.64L1146.07 429.68 1180.55 248.31 1324.33 388.74 1287.41 229.38 1448.34 232.23" stroke="#1f2322" stroke-width="4" stroke-linecap="round" stroke-linejoin="round" opacity="1" fill="none"></path></g><g><path d="M281.87 757.72C267.29 757.72 255.48 769.53 255.48 784.11 255.48 798.69 267.29 810.5 281.87 810.5 296.45 810.5 308.26 798.69 308.26 784.11 308.26 769.53 296.45 757.72 281.87 757.72Z" stroke="#2c465b" stroke-width="4" stroke-linecap="round" stroke-linejoin="round" opacity="1" fill="none"></path></g><g><path d="M1289.99 492.29L1245.55 518.79 1300.24 512.52 1293.44 557.71 1321.21 519.42 1356.78 554.25 1341.07 507.74 1390.92 493.94 1340.38 483.06 1366.5 435.22 1322.8 471.48 1297.95 419.87 1300.08 475.3 1252.29 459.91 1289.99 492.29Z" fill="#7c2ff9" opacity="1" stroke-width="4" stroke="none"></path></g><g><path d="M582.74 164.13V179.34" stroke="#ffffff" stroke-width="4" stroke-linecap="round" stroke-linejoin="round" opacity="1" fill="none"></path><path d="M582.74 222.5V237.71" stroke="#ffffff" stroke-width="4" stroke-linecap="round" stroke-linejoin="round" opacity="1" fill="none"></path><path d="M619.53 200.92H604.32" stroke="#ffffff" stroke-width="4" stroke-linecap="round" stroke-linejoin="round" opacity="1" fill="none"></path><path d="M561.16 200.92H545.95" stroke="#ffffff" stroke-width="4" stroke-linecap="round" stroke-linejoin="round" opacity="1" fill="none"></path><path d="M556.74 174.92L567.45 185.63" stroke="#ffffff" stroke-width="4" stroke-linecap="round" stroke-linejoin="round" opacity="1" fill="none"></path><path d="M598.03 216.21L608.74 226.92" stroke="#ffffff" stroke-width="4" stroke-linecap="round" stroke-linejoin="round" opacity="1" fill="none"></path><path d="M608.74 174.92L598.03 185.63" stroke="#ffffff" stroke-width="4" stroke-linecap="round" stroke-linejoin="round" opacity="1" fill="none"></path><path d="M567.45 216.21L556.74 226.92" stroke="#ffffff" stroke-width="4" stroke-linecap="round" stroke-linejoin="round" opacity="1" fill="none"></path></g></svg>