<svg xmlns="http://www.w3.org/2000/svg" height="1200" width="1600" version="1.1" xmlns:xlink="http://www.w3.org/1999/xlink" xmlns:svgjs="http://svgjs.com/svgjs"><rect fill="none" width="1600" height="1200"></rect><g><path d="M417.53 290.92L1182.47 294.15C1208.31 294.15 1215.4 296.86 1215.4 322.7L1229.25 360.31V925.11C1229.25 950.95 1208.31 971.89 1182.47 971.89H417.53C391.69 971.89 370.75 950.95 370.75 925.11V360.31L383.35 322.7C383.35 296.86 391.69 290.92 417.53 290.92Z" fill="#ffffff" opacity="1" stroke-width="4" stroke="none"></path><path d="M417.53 275.92H1182.47C1208.31 275.92 1229.25 296.86 1229.25 322.7V360.31H370.75V322.7C370.75 296.86 391.69 275.92 417.53 275.92Z" fill="#d5d5d5" opacity="1" stroke-width="4" stroke="none"></path><path d="M436.7 333.74C444.75 333.74 451.28 327.21 451.28 319.16 451.28 311.1 444.75 304.57 436.7 304.57 428.64 304.57 422.11 311.1 422.11 319.16 422.11 327.21 428.64 333.74 436.7 333.74Z" fill="#ffffff" opacity="1" stroke-width="4" stroke="none"></path><path d="M484.1 333.74C492.16 333.74 498.69 327.21 498.69 319.16 498.69 311.1 492.16 304.57 484.1 304.57 476.05 304.57 469.52 311.1 469.52 319.16 469.52 327.21 476.05 333.74 484.1 333.74Z" fill="#ffffff" opacity="1" stroke-width="4" stroke="none"></path><path d="M531.51 333.74C539.56 333.74 546.1 327.21 546.1 319.16 546.1 311.1 539.56 304.57 531.51 304.57 523.46 304.57 516.92 311.1 516.92 319.16 516.92 327.21 523.46 333.74 531.51 333.74Z" fill="#ffffff" opacity="1" stroke-width="4" stroke="none"></path><path d="M692.27 318.84H907.83" stroke="#ffffff" stroke-width="4" stroke-linecap="round" stroke-linejoin="round" opacity="1" fill="none"></path></g><g><path d="M658.8 823.28C627.69 823.28 602.57 798.16 602.57 767.24V650.15C602.57 619.04 627.89 593.92 658.8 593.92H876.76C907.87 593.92 932.99 619.04 932.99 649.95V767.05C932.99 798.16 907.87 823.28 876.96 823.28H658.8V823.28Z" fill="#7c2ff9" opacity="1" stroke-width="4" stroke="none"></path><path d="M915.6 806.66L767.78 688.6 619.97 806.66" stroke="#000000" stroke-width="4" stroke-linecap="round" stroke-linejoin="round" opacity="1" fill="none"></path><path d="M620.35 609.38H915.02C915.22 609.38 915.22 609.57 915.22 609.76L767.78 775.74H767.59L620.35 609.76C620.16 609.57 620.16 609.38 620.35 609.38Z" fill="#000000" opacity="0.3" stroke-width="4" stroke="none"></path><path d="M620.16 609.59C620.16 609.59 619.97 609.39 620.16 609.2 630.98 599.35 644.7 593.74 658.8 593.74H876.57C891.06 593.74 904.78 599.15 915.22 609.01 915.22 609.01 915.22 609.2 915.22 609.39L767.78 727.46H767.59L620.16 609.59Z" fill="#7c2ff9" opacity="1" stroke-width="4" stroke="none"></path><path d="M620.16 609.57L767.59 727.44 915.41 609.38" stroke="#000000" stroke-width="4" stroke-linecap="round" stroke-linejoin="round" opacity="1" fill="none"></path><path d="M944.39 704.08C898.99 704.08 862.27 667.36 862.27 621.95 862.66 578.29 881.4 536.35 914.06 507.18 914.25 506.98 914.44 507.18 914.44 507.37 915.22 516.84 914.06 525.34 912.9 533.65 910.97 546.6 909.42 557.8 916.18 568.43 916.38 568.62 916.57 568.43 916.57 568.43 919.47 546.6 926.62 536.16 934.93 524.18 942.27 513.36 950.58 501.38 956.95 478.58 956.95 478.39 957.15 478.39 957.34 478.58 979.17 509.11 977.44 534.04 975.7 558 974.34 575.97 973.18 592.97 982.07 611.13 982.07 611.33 982.27 611.33 982.46 611.13 984.01 608.62 995.21 590.65 991.73 552.01 991.73 551.81 991.93 551.81 992.12 551.81 1012.8 566.3 1026.71 594.71 1026.71 622.15 1026.52 667.36 989.8 704.08 944.39 704.08Z" fill="#006dff" opacity="1" stroke-width="4" stroke="none"></path></g><g><path d="M1122.13 971.66L1093.29 858.41H1256.31L1227.47 971.43 1122.13 971.66Z" fill="#2c465b" opacity="1" stroke-width="4" stroke="none"></path><path d="M1097.48 874.92L1093.29 858.41H1256.31L1241.66 916.08 1097.48 874.92Z" fill="#000000" opacity="0.2" stroke-width="4" stroke="none"></path><path d="M1090.27 858.64C1075.85 858.64 1064.23 847.01 1064.23 832.6 1064.23 818.18 1075.85 806.55 1090.27 806.55H1108.64C1113.29 778.18 1135.62 755.86 1163.99 751.21 1167.71 750.51 1171.2 750.28 1174.92 750.28 1207.71 750.28 1235.61 774 1240.96 806.55H1259.1C1273.52 806.55 1284.91 817.95 1285.14 832.6 1285.14 847.01 1273.52 858.64 1259.1 858.64H1090.27Z" fill="#006dff" opacity="1" stroke-width="4" stroke="none"></path><path d="M1167.71 806.55L1172.36 806.32C1211.66 797.71 1223.29 771.44 1223.52 771.2 1232.82 780.74 1238.87 793.06 1241.19 806.32H1167.71V806.55Z" fill="#0047a5" opacity="0.2" stroke-width="4" stroke="none"></path><path d="M1173.29 768.41C1188.71 768.41 1201.19 755.93 1201.19 740.51 1201.19 725.09 1188.71 712.6 1173.29 712.6 1157.87 712.6 1145.38 725.09 1145.38 740.51 1145.38 755.93 1157.87 768.41 1173.29 768.41Z" fill="#7c2ff9" opacity="1" stroke-width="4" stroke="none"></path><path d="M1108.64 806.55H1153.99" stroke="#404c5c" stroke-width="4" stroke-linecap="round" stroke-linejoin="round" opacity="1" fill="none"></path><path d="M1143.76 859.11L1156.55 967.94" stroke="#000000" stroke-width="4" stroke-linecap="round" stroke-linejoin="round" opacity="1" fill="none"></path><path d="M1202.82 859.11L1190.26 968.17" stroke="#000000" stroke-width="4" stroke-linecap="round" stroke-linejoin="round" opacity="1" fill="none"></path></g><g><path d="M424.81 538.92C446.91 533.94 460.73 512.08 455.74 489.98L437.19 407.66C432.21 385.56 410.35 371.74 388.25 376.72 366.16 381.7 352.34 403.56 357.32 425.66L375.87 507.98C380.86 530.08 402.72 543.9 424.81 538.92Z" stroke="#09121e" stroke-width="4" stroke-linecap="round" opacity="1" fill="none"></path><path d="M343.54 461.44L464.98 434.07C476.44 431.48 487.87 438.71 490.45 450.17L506.76 522.51C512.81 549.35 495.99 576.19 468.98 582.28L403.51 597.03C376.67 603.08 349.83 586.26 343.75 559.25L327.44 486.91C324.86 475.46 332.08 464.02 343.54 461.44Z" fill="#006dff" opacity="1" stroke-width="4" stroke="none"></path><path d="M414.89 494.89C420.12 493.71 425.34 497.01 426.52 502.24 427.7 507.48 424.4 512.7 419.17 513.88 413.93 515.06 408.72 511.76 407.53 506.52 406.52 501.25 409.65 496.07 414.89 494.89ZM413.41 488.34C404.57 490.34 399 499.16 400.99 508 402.98 516.84 411.8 522.42 420.64 520.42 429.48 518.43 435.06 509.61 433.07 500.77 431.07 491.93 422.25 486.35 413.41 488.34Z" fill="#09121e" opacity="1" stroke-width="4" stroke="none"></path><path d="M419.73 517.88L424.48 538.99" stroke="#09121e" stroke-width="4" stroke-linecap="round" stroke-linejoin="round" opacity="1" fill="none"></path></g><g><path d="M409.88 859.01L230.63 939.22" stroke="#1f2322" stroke-width="4" stroke-linecap="round" stroke-linejoin="round" opacity="1" fill="none"></path><path d="M498.04 893.43L458.33 1021.42" stroke="#1f2322" stroke-width="4" stroke-linecap="round" stroke-linejoin="round" opacity="1" fill="none"></path></g><g><path d="M1144 229.58L1146.34 124.44 1213.92 218.34 1332.12 155.13 1266.68 266.24 1372.55 305.97 1256.51 342.45 1317.97 397.14" stroke="#1f2322" stroke-width="4" stroke-linecap="round" stroke-linejoin="round" opacity="1" fill="none"></path></g><g><path d="M330.52 759.63L235.01 777.68 258.98 833.1 330.52 759.63Z" fill="#000000" opacity="0.2" stroke-width="4" stroke="none"></path><path d="M330.52 759.63L214.21 769.91 238.17 825.32 330.52 759.63Z" fill="#2c465b" opacity="1" stroke-width="4" stroke="none"></path></g><g><path d="M1326.36 442.07C1304.91 442.07 1287.53 459.45 1287.53 480.9 1287.53 502.35 1304.91 519.73 1326.36 519.73 1347.81 519.73 1365.2 502.35 1365.2 480.9 1365.2 459.45 1347.81 442.07 1326.36 442.07Z" stroke="#7c2ff9" stroke-width="4" stroke-linecap="round" stroke-linejoin="round" opacity="1" fill="none"></path></g><g><path d="M585.16 223.43C599.35 223.43 610.86 211.92 610.86 197.73 610.86 183.53 599.35 172.02 585.16 172.02 570.96 172.02 559.45 183.53 559.45 197.73 559.45 211.92 570.96 223.43 585.16 223.43Z" fill="#ffffff" opacity="1" stroke-width="4" stroke="none"></path></g></svg>