<svg xmlns="http://www.w3.org/2000/svg" height="1200" width="1600" version="1.1" xmlns:xlink="http://www.w3.org/1999/xlink" xmlns:svgjs="http://svgjs.com/svgjs"><rect fill="none" width="1600" height="1200"></rect><g><path d="M1100.5 268.25H506.53C466.31 268.25 433.79 300.77 433.79 340.99V899.04C433.79 939.27 466.31 971.79 506.53 971.79H1100.5C1140.72 971.79 1173.24 939.27 1173.24 899.04V340.99C1173.24 300.77 1140.59 268.25 1100.5 268.25Z" fill="#ffffff" opacity="1" stroke-width="4" stroke="none"></path><path d="M513.33 397.41C529.85 397.41 543.23 384.03 543.23 367.5 543.23 350.98 529.85 337.6 513.33 337.6 496.8 337.6 483.42 350.98 483.42 367.5 483.42 384.03 496.8 397.41 513.33 397.41Z" fill="#e9eff3" opacity="1" stroke-width="4" stroke="none"></path><path d="M600.17 397.41C616.69 397.41 630.08 384.03 630.08 367.5 630.08 350.98 616.69 337.6 600.17 337.6 583.65 337.6 570.27 350.98 570.27 367.5 570.27 384.03 583.65 397.41 600.17 397.41Z" fill="#e9eff3" opacity="1" stroke-width="4" stroke="none"></path><path d="M687.15 397.41C703.67 397.41 717.06 384.03 717.06 367.5 717.06 350.98 703.67 337.6 687.15 337.6 670.63 337.6 657.25 350.98 657.25 367.5 657.25 384.03 670.63 397.41 687.15 397.41Z" fill="#e9eff3" opacity="1" stroke-width="4" stroke="none"></path></g><g><path d="M615.57 493.55H1004.27C1020.08 493.55 1032.79 506.35 1032.79 522.16V818.42C1032.79 834.23 1019.99 846.94 1004.27 846.94H615.57C599.76 846.94 586.95 834.14 586.95 818.42V522.16C587.05 506.35 599.76 493.55 615.57 493.55Z" fill="#000000" opacity="0.2" stroke-width="4" stroke="none"></path><path d="M601.45 479.43H990.15C1005.96 479.43 1018.67 492.23 1018.67 508.04V804.3C1018.67 820.11 1005.87 832.82 990.15 832.82H601.45C585.63 832.82 572.83 820.02 572.83 804.3V508.04C572.93 492.23 585.63 479.43 601.45 479.43Z" fill="#7c2ff9" opacity="1" stroke-width="4" stroke="none"></path><path d="M636.09 516.05H758.94C766.19 516.05 772.12 521.98 772.12 529.22V529.79C772.12 537.04 766.19 542.97 758.94 542.97H636.09C628.84 542.97 622.91 537.04 622.91 529.79V529.22C622.91 521.98 628.84 516.05 636.09 516.05Z" fill="#2c465b" opacity="1" stroke-width="4" stroke="none"></path><path d="M939.41 516.05H1018.67V542.97H939.41C932.16 542.97 926.23 537.04 926.23 529.79V529.22C926.23 521.98 932.16 516.05 939.41 516.05Z" fill="#2c465b" opacity="1" stroke-width="4" stroke="none"></path><path d="M739.17 641.72H780.22C787.47 641.72 793.4 647.65 793.4 654.9V655.46C793.4 662.71 787.47 668.64 780.22 668.64H739.17C731.93 668.64 725.99 662.71 725.99 655.46V654.9C725.99 647.56 731.93 641.72 739.17 641.72Z" fill="#ffffff" opacity="1" stroke-width="4" stroke="none"></path><path d="M698.69 767.39H739.74C746.99 767.39 752.92 773.32 752.92 780.57V781.14C752.92 788.39 746.99 794.32 739.74 794.32H698.69C691.45 794.32 685.52 788.39 685.52 781.14V780.57C685.52 773.23 691.45 767.39 698.69 767.39Z" fill="#2c465b" opacity="1" stroke-width="4" stroke="none"></path><path d="M788.31 767.39H867.86C875.11 767.39 881.04 773.32 881.04 780.57V781.14C881.04 788.39 875.11 794.32 867.86 794.32H788.31C781.07 794.32 775.14 788.39 775.14 781.14V780.57C775.14 773.23 780.97 767.39 788.31 767.39Z" fill="#2c465b" opacity="1" stroke-width="4" stroke="none"></path><path d="M739.17 704.51H879.35C886.59 704.51 892.53 710.44 892.53 717.69V718.25C892.53 725.5 886.59 731.43 879.35 731.43H739.17C731.93 731.43 725.99 725.5 725.99 718.25V717.69C725.99 710.44 731.93 704.51 739.17 704.51Z" fill="#006dff" opacity="1" stroke-width="4" stroke="none"></path><path d="M636.09 578.84H758.94C766.19 578.84 772.12 584.77 772.12 592.01V592.58C772.12 599.83 766.19 605.76 758.94 605.76H636.09C628.84 605.76 622.91 599.83 622.91 592.58V592.01C622.91 584.77 628.84 578.84 636.09 578.84Z" fill="#006dff" opacity="1" stroke-width="4" stroke="none"></path><path d="M823.9 578.65H886.12C893.37 578.65 899.3 584.58 899.3 591.83V592.39C899.3 599.64 893.37 605.57 886.12 605.57H823.9C816.65 605.57 810.72 599.64 810.72 592.39V591.83C810.72 584.48 816.65 578.65 823.9 578.65Z" fill="#006dff" opacity="1" stroke-width="4" stroke="none"></path><path d="M601.45 479.43H654.73V832.82H601.45C585.63 832.82 572.83 820.02 572.83 804.3V508.04C572.83 492.23 585.63 479.43 601.45 479.43Z" fill="#7c2ff9" opacity="1" stroke-width="4" stroke="none"></path><path d="M601.45 479.43H654.73V832.82H601.45C585.63 832.82 572.83 820.02 572.83 804.3V508.04C572.83 492.23 585.63 479.43 601.45 479.43Z" fill="#006dff" opacity="0.2" stroke-width="4" stroke="none"></path><path d="M1018.67 560.38H655.67" stroke="#798ca6" stroke-width="4" stroke-linejoin="round" opacity="1" fill="none"></path><path d="M1018.67 623.93H655.67" stroke="#798ca6" stroke-width="4" stroke-linejoin="round" opacity="1" fill="none"></path><path d="M1018.67 688.41H655.67" stroke="#798ca6" stroke-width="4" stroke-linejoin="round" opacity="1" fill="none"></path><path d="M1018.67 749.04H655.67" stroke="#798ca6" stroke-width="4" stroke-linejoin="round" opacity="1" fill="none"></path><path d="M654.73 479.43V832.82" stroke="#000000" stroke-width="4" stroke-linejoin="round" opacity="1" fill="none"></path><path d="M604.65 529.51H622.91" stroke="#000000" stroke-width="4" stroke-linecap="round" stroke-linejoin="round" opacity="1" fill="none"></path><path d="M604.65 592.11H622.91" stroke="#000000" stroke-width="4" stroke-linecap="round" stroke-linejoin="round" opacity="1" fill="none"></path><path d="M604.65 654.71H622.91" stroke="#000000" stroke-width="4" stroke-linecap="round" stroke-linejoin="round" opacity="1" fill="none"></path><path d="M604.65 718.25H622.91" stroke="#000000" stroke-width="4" stroke-linecap="round" stroke-linejoin="round" opacity="1" fill="none"></path><path d="M604.65 780.86H622.91" stroke="#000000" stroke-width="4" stroke-linecap="round" stroke-linejoin="round" opacity="1" fill="none"></path></g><g><path d="M1302.37 807.67H1236.52V873.04H1302.37C1320.34 873.04 1335.05 858.33 1335.05 840.35 1335.05 822.38 1320.34 807.67 1302.37 807.67Z" stroke="#000000" stroke-width="4" stroke-linecap="round" stroke-linejoin="round" opacity="1" fill="none"></path><path d="M1203.13 971.11C1242.36 971.11 1274.35 939.12 1274.35 899.9V751.63H1073.54V899.9C1073.54 939.12 1105.53 971.11 1144.76 971.11H1203.13Z" fill="#2c465b" opacity="1" stroke-width="4" stroke="none"></path><path d="M1184.45 971.11C1145.22 970.88 1113.24 939.12 1113.24 899.9V751.63H1073.54V899.9C1073.54 939.12 1105.53 971.11 1144.76 971.11H1184.45Z" fill="#000000" opacity="0.2" stroke-width="4" stroke="none"></path><path d="M1173.94 805.33C1214.1 805.33 1239.32 790.62 1253.33 778.48 1265.94 767.5 1270.38 756.3 1271.54 752.79 1271.78 752.33 1271.31 751.63 1270.61 751.63H1074.94C1074.71 751.63 1074.48 751.86 1074.71 752.09 1077.04 757 1100.86 805.33 1173.94 805.33Z" fill="#000000" opacity="1" stroke-width="4" stroke="none"></path></g><g><path d="M459.98 577.01C514 554.63 539.64 492.7 517.25 438.68 494.87 384.67 432.94 359.03 378.92 381.42 324.91 403.8 299.27 465.73 321.66 519.74 344.04 573.76 405.97 599.4 459.98 577.01Z" fill="#006dff" opacity="1" stroke-width="4" stroke="none"></path><path d="M443.86 538.11C476.39 524.63 491.83 487.34 478.35 454.81 464.87 422.27 427.58 406.83 395.04 420.32 362.51 433.8 347.07 471.09 360.56 503.62 374.04 536.15 411.33 551.59 443.86 538.11Z" fill="#89bbff" opacity="1" stroke-width="4" stroke="none"></path><path d="M426.36 439.35L419.45 479.21 442.04 492" stroke="#000000" stroke-width="4" stroke-linecap="round" stroke-linejoin="round" opacity="1" fill="none"></path></g><g><path d="M493.85 843.54L447.04 938.63 340.13 790.16 327.45 1037.65 230.75 927.54 210.48 1008.49" stroke="#1f2322" stroke-width="4" stroke-linecap="round" stroke-linejoin="round" opacity="1" fill="none"></path></g><g><path d="M1097.55 409.33L1226.41 241.01" stroke="#1f2322" stroke-width="4" stroke-linecap="round" stroke-linejoin="round" opacity="1" fill="none"></path><path d="M1262.28 371.92L1433.75 235.79" stroke="#1f2322" stroke-width="4" stroke-linecap="round" stroke-linejoin="round" opacity="1" fill="none"></path></g><g><path d="M330.52 759.63L235.01 777.68 258.98 833.1 330.52 759.63Z" fill="#000000" opacity="0.2" stroke-width="4" stroke="none"></path><path d="M330.52 759.63L214.21 769.91 238.17 825.32 330.52 759.63Z" fill="#2c465b" opacity="1" stroke-width="4" stroke="none"></path></g><g><path d="M1323.39 442.12C1346.43 442.12 1365.11 460.8 1365.11 483.83 1365.11 506.87 1346.43 525.54 1323.39 525.54 1300.36 525.54 1281.68 506.87 1281.68 483.83 1281.68 460.8 1300.36 442.12 1323.39 442.12Z" fill="#7c2ff9" opacity="1" stroke-width="4" stroke="none"></path></g><g><path d="M596.57 191.76L615.77 196.32 599.47 207.37 605.06 226.29 587.31 217.73 573.77 232.03 572.32 212.34 553.12 207.78 569.42 196.66 563.83 177.81 581.58 186.37 595.12 172.07 596.57 191.76Z" fill="#ffffff" opacity="1" stroke-width="4" stroke="none"></path></g></svg>